<svg width="18" height="20" viewBox="0 0 18 20" fill="none" xmlns="http://www.w3.org/2000/svg">
<path d="M13.2763 13.0811C15.5535 11.7809 17.2949 10.7903 17.4438 10.7129C17.9201 10.4498 18.4112 9.75322 17.4438 9.21148C17.1312 9.04121 15.4493 8.08154 13.2763 6.84326L10.2847 9.96992L13.2763 13.0811Z" fill="#FFD400"/>
<path d="M10.2844 9.96973L0.729004 19.9843C0.952261 20.0153 1.20528 19.9534 1.50296 19.7831C2.12808 19.4271 8.76625 15.6503 13.276 13.0809L10.2844 9.96973Z" fill="#FF3333"/>
<path d="M10.2846 9.96986L13.2763 6.8432C13.2763 6.8432 2.17297 0.543448 1.5032 0.171964C1.25017 0.0171787 0.96738 -0.0292568 0.714355 0.0171787L10.2846 9.96986Z" fill="#48FF48"/>
<path d="M10.2847 9.96978L0.714422 0.0170898C0.327443 0.109961 0 0.465968 0 1.19346C0 2.35435 0 17.8329 0 18.808C0 19.4736 0.253025 19.9534 0.729306 19.9998L10.2847 9.96978Z" fill="#3BCCFF"/>
</svg>
