<svg width="17" height="20" viewBox="0 0 17 20" fill="none" xmlns="http://www.w3.org/2000/svg">
<path d="M16.4571 6.81868C16.336 6.90869 14.1976 8.06281 14.1976 10.6291C14.1976 13.5974 16.9186 14.6475 17 14.6735C16.9875 14.7375 16.5677 16.1116 15.5654 17.5118C14.6717 18.7439 13.7382 19.974 12.3183 19.974C10.8983 19.974 10.5329 19.1839 8.89363 19.1839C7.29615 19.1839 6.72817 20 5.42931 20C4.13045 20 3.22417 18.8599 2.18216 17.4597C0.975187 15.8156 0 13.2613 0 10.8371C0 6.94869 2.63948 4.88649 5.2372 4.88649C6.61749 4.88649 7.76809 5.75458 8.63469 5.75458C9.45953 5.75458 10.7459 4.83448 12.3162 4.83448C12.9113 4.83448 15.0496 4.88649 16.4571 6.81868ZM11.5707 3.18832C12.2201 2.45024 12.6795 1.42614 12.6795 0.40204C12.6795 0.260026 12.667 0.116012 12.6398 0C11.5832 0.0380038 10.3261 0.674067 9.56811 1.51615C8.97298 2.16422 8.41752 3.18832 8.41752 4.22642C8.41752 4.38244 8.44466 4.53845 8.45719 4.58846C8.52401 4.60046 8.6326 4.61446 8.74119 4.61446C9.68923 4.61446 10.8816 4.0064 11.5707 3.18832Z" fill="black"/>
</svg>
