<svg width="261" height="86" viewBox="0 0 261 86" fill="none" xmlns="http://www.w3.org/2000/svg">
<path d="M86.5489 62.6715V43.6055C86.5489 38.1502 82.1591 33.708 76.7609 33.708C71.3627 33.708 66.9729 38.1456 66.9729 43.6055V62.6715H57.4131V43.4817C57.4131 32.7958 66.0922 24.104 76.7609 24.104C87.4295 24.104 96.1087 32.8508 96.1087 43.6055V62.6715H86.5489Z" fill="#3EC1E0"/>
<path d="M109.558 24.104H99.998V62.6715H109.558V24.104Z" fill="#3EC1E0"/>
<path d="M141.778 47.6949C140.185 51.0964 136.763 53.3794 132.925 53.3794C127.491 53.3794 123.078 48.9418 123.078 43.4819C123.078 38.0221 127.491 33.6487 132.925 33.6487C136.754 33.6487 140.167 35.895 141.773 39.2598H151.84C149.905 30.4764 142.038 24.04 132.925 24.04C122.216 24.04 113.514 32.7639 113.514 43.4819C113.514 54.1999 122.216 62.9742 132.925 62.9742C142.043 62.9742 149.909 56.5104 151.844 47.6949H141.778Z" fill="white"/>
<path d="M175.509 62.9786C164.808 62.9786 156.102 54.2318 156.102 43.4817C156.102 32.7316 164.808 24.0444 175.509 24.0444C186.209 24.0444 194.856 32.7637 194.856 43.4817V62.6715H185.297V60.3014C182.349 62.0343 178.963 62.9832 175.509 62.9832V62.9786ZM175.509 33.6485C170.079 33.6485 165.657 38.0585 165.657 43.4817C165.657 48.9049 170.074 53.3792 175.509 53.3792C180.943 53.3792 185.297 48.9416 185.297 43.4817C185.297 38.0219 180.907 33.6485 175.509 33.6485Z" fill="white"/>
<path d="M198.812 62.6715V43.4817C198.812 32.8004 207.487 24.0536 218.147 23.9803L220.656 23.9619V33.5614L218.183 33.5843C212.771 33.6347 208.372 38.0723 208.372 43.4817V62.6715H198.812Z" fill="white"/>
<path d="M249.217 50.1427C248.409 51.0045 247.474 51.7426 246.429 52.2881L246.447 52.2698C245.484 52.7741 244.444 53.1133 243.33 53.2646C248.062 48.5015 255.354 41.1942 260.036 36.4907C247.871 9.03555 209.011 32.1678 227.136 56.0243C236.048 67.4025 255.619 63.9918 260.191 50.1427H249.217ZM233.962 49.18L233.93 49.1983C232.379 47.0391 231.772 44.1327 232.324 41.5197C232.324 41.5197 232.324 41.5136 232.324 41.5014C232.803 39.1496 234.181 37.0409 236.075 35.5968H236.084C239.37 33.048 244.257 33.0342 247.629 35.4409L233.958 49.1754L233.962 49.18Z" fill="white"/>
<path d="M44.007 0C42.8161 0 41.6661 0.224631 40.6257 0.614294C39.3435 1.10023 38.2073 1.8658 37.2627 2.80099C36.5007 3.56657 35.8664 4.48342 35.4055 5.47362C34.8123 6.72513 34.4746 8.12333 34.4746 9.58112V9.67281C34.4746 14.9585 38.7503 19.2539 44.0116 19.2539H53.5669V9.58112C53.5669 4.29546 49.2912 0 44.0116 0H44.007Z" fill="#3EC1E0"/>
<path d="M53.5438 37.018C53.4343 37.6369 52.1794 57.418 29.2176 57.418C28.8389 57.418 28.4693 57.4134 28.1042 57.3951C19.5939 57.1109 14.6201 53.5397 11.727 49.3589C8.60127 44.4858 7.81641 38.7921 7.81641 36.5413V24.0537H19.2562V36.092C19.2562 36.092 18.9505 50.4545 34.4698 50.4545C45.791 50.4545 51.244 42.1799 53.5438 37.018Z" fill="#3EC1E0"/>
<path d="M53.5494 37.0043C53.1388 51.3943 41.3247 62.9787 26.8595 62.9787C12.3943 62.9787 0.151367 50.9038 0.151367 36.0599V24.0537H7.81747V36.5413C7.81747 38.7921 8.60233 44.4858 11.7281 49.3589C14.6211 53.5397 19.595 57.1109 28.1053 57.3951C28.4703 57.4134 28.8399 57.418 29.2187 57.418C52.1805 57.418 53.4354 37.6369 53.5449 37.018C53.5449 37.0089 53.5449 37.0043 53.5449 37.0043H53.5494Z" fill="#3EC1E0"/>
<path d="M53.5494 37.0043C53.1388 51.3943 41.3247 62.9787 26.8595 62.9787C12.3943 62.9787 0.151367 50.9038 0.151367 36.0599V24.0537H7.81747V36.5413C7.81747 38.7921 8.60233 44.4858 11.7281 49.3589C14.5253 53.7185 19.1934 57.418 26.8504 57.418C27.2748 57.418 27.6946 57.4134 28.1053 57.3951C28.4703 57.4134 28.8399 57.418 29.2187 57.418C52.1805 57.418 53.4354 37.6369 53.5449 37.018C53.5449 37.0089 53.5449 37.0043 53.5449 37.0043H53.5494Z" fill="#3EC1E0"/>
<path d="M53.563 24.0537V33.9374C50.7795 38.8976 45.4223 44.903 35.826 44.9534C34.4342 41.9507 34.4571 37.9257 34.4571 37.9257C34.4571 37.9257 34.4616 36.1562 34.4616 36.092V24.0537H53.563Z" fill="#3EC1E0"/>
<path d="M19.2648 8.6276C19.0412 6.36755 18.0191 4.33214 16.5132 2.81933C14.7838 1.08189 12.3881 0 9.74606 0H9.72781C4.44823 0 0.154297 4.3138 0.154297 9.6178V19.2539H9.74606C11.9957 19.2539 14.0582 18.47 15.6964 17.1635C15.7694 17.1085 15.8424 17.0535 15.92 16.9756C17.4076 15.724 18.5028 14.0049 18.9865 12.0658C19.21 11.2819 19.3196 10.4613 19.3196 9.6178C19.3196 9.28315 19.3013 8.96225 19.2648 8.6276Z" fill="#1FA2B7"/>
<path d="M53.5494 37.0043C53.1388 51.3943 41.3247 62.9787 26.8595 62.9787C12.3943 62.9787 0.151367 50.9038 0.151367 36.0599V24.0537H7.81747V36.5413C7.81747 38.7921 8.35136 44.4858 11.7281 49.3589C14.6211 53.5397 19.595 57.1109 28.1053 57.3951C28.4703 57.4134 28.8399 57.418 29.2187 57.418C52.1805 57.418 53.4354 37.6369 53.5449 37.018C53.5449 37.0089 53.5449 37.0043 53.5449 37.0043H53.5494Z" fill="#1FA2B7"/>
<path d="M258.577 82.9201V79.6501H260.422V83.8351C259.327 84.7201 257.797 85.1701 256.312 85.1701C253.057 85.1701 250.657 82.9051 250.657 79.7701C250.657 76.6351 253.057 74.3701 256.342 74.3701C258.097 74.3701 259.567 74.9551 260.557 76.0801L259.327 77.2801C258.502 76.4551 257.557 76.0801 256.432 76.0801C254.197 76.0801 252.622 77.5951 252.622 79.7701C252.622 81.9001 254.197 83.4601 256.417 83.4601C257.167 83.4601 257.902 83.3101 258.577 82.9201Z" fill="white"/>
<path d="M242.759 74.52H244.694V85.02H243.089L237.299 77.91V85.02H235.364V74.52H236.969L242.759 81.63V74.52Z" fill="white"/>
<path d="M226.673 85.02V74.52H228.623V85.02H226.673Z" fill="white"/>
<path d="M219.166 85.02L215.461 80.625L213.796 82.335V85.02H211.846V74.52H213.796V79.905L218.986 74.52H221.176L216.766 79.215L221.446 85.02H219.166Z" fill="white"/>
<path d="M200.224 85.1701C196.969 85.1701 194.569 82.8751 194.569 79.7701C194.569 76.6651 196.969 74.3701 200.224 74.3701C203.479 74.3701 205.879 76.6501 205.879 79.7701C205.879 82.8901 203.479 85.1701 200.224 85.1701ZM200.224 83.4601C202.339 83.4601 203.914 81.9151 203.914 79.7701C203.914 77.6251 202.339 76.0801 200.224 76.0801C198.109 76.0801 196.534 77.6251 196.534 79.7701C196.534 81.9151 198.109 83.4601 200.224 83.4601Z" fill="white"/>
<path d="M183.697 85.1701C180.442 85.1701 178.042 82.8751 178.042 79.7701C178.042 76.6651 180.442 74.3701 183.697 74.3701C186.952 74.3701 189.352 76.6501 189.352 79.7701C189.352 82.8901 186.952 85.1701 183.697 85.1701ZM183.697 83.4601C185.812 83.4601 187.387 81.9151 187.387 79.7701C187.387 77.6251 185.812 76.0801 183.697 76.0801C181.582 76.0801 180.007 77.6251 180.007 79.7701C180.007 81.9151 181.582 83.4601 183.697 83.4601Z" fill="white"/>
<path d="M170.921 79.56C172.046 79.92 172.811 80.805 172.811 82.17C172.811 83.97 171.401 85.02 168.701 85.02H163.481V74.52H168.401C170.921 74.52 172.271 75.585 172.271 77.25C172.271 78.33 171.731 79.125 170.921 79.56ZM168.191 76.05H165.431V78.945H168.191C169.541 78.945 170.306 78.465 170.306 77.505C170.306 76.53 169.541 76.05 168.191 76.05ZM168.581 83.49C170.051 83.49 170.846 83.025 170.846 81.975C170.846 80.925 170.051 80.46 168.581 80.46H165.431V83.49H168.581Z" fill="white"/>
<path d="M143.436 83.385H149.361V85.02H141.486V74.52H149.151V76.155H143.436V78.885H148.506V80.49H143.436V83.385Z" fill="white"/>
<path d="M135.584 85.02H133.485L131.34 81.945C131.205 81.96 131.07 81.96 130.935 81.96H128.564V85.02H126.615V74.52H130.935C133.695 74.52 135.405 75.93 135.405 78.255C135.405 79.845 134.595 81.015 133.17 81.57L135.584 85.02ZM133.439 78.255C133.439 76.935 132.555 76.17 130.845 76.17H128.564V80.355H130.845C132.555 80.355 133.439 79.575 133.439 78.255Z" fill="white"/>
<path d="M119.339 85.02L118.289 82.59H113.039L112.004 85.02H109.994L114.719 74.52H116.639L121.379 85.02H119.339ZM113.699 81.06H117.644L115.664 76.47L113.699 81.06Z" fill="white"/>
<path d="M101.761 85.1701C98.5506 85.1701 96.1506 82.9051 96.1506 79.7701C96.1506 76.6351 98.5506 74.3701 101.776 74.3701C103.486 74.3701 104.956 74.9851 105.931 76.1251L104.671 77.3101C103.906 76.4851 102.961 76.0801 101.866 76.0801C99.6906 76.0801 98.1156 77.6101 98.1156 79.7701C98.1156 81.9301 99.6906 83.4601 101.866 83.4601C102.961 83.4601 103.906 83.0551 104.671 82.2151L105.931 83.4151C104.956 84.5551 103.486 85.1701 101.761 85.1701Z" fill="white"/>
<path d="M75.9756 85.02V74.52H77.9256V83.37H83.4156V85.02H75.9756Z" fill="white"/>
<path d="M68.7002 85.02L67.6502 82.59H62.4002L61.3652 85.02H59.3552L64.0802 74.52H66.0002L70.7402 85.02H68.7002ZM63.0602 81.06H67.0052L65.0252 76.47L63.0602 81.06Z" fill="white"/>
<path d="M52.9691 79.56C54.0941 79.92 54.8591 80.805 54.8591 82.17C54.8591 83.97 53.4491 85.02 50.7491 85.02H45.5291V74.52H50.4491C52.9691 74.52 54.3191 75.585 54.3191 77.25C54.3191 78.33 53.7791 79.125 52.9691 79.56ZM50.2391 76.05H47.4791V78.945H50.2391C51.5891 78.945 52.3541 78.465 52.3541 77.505C52.3541 76.53 51.5891 76.05 50.2391 76.05ZM50.6291 83.49C52.0991 83.49 52.8941 83.025 52.8941 81.975C52.8941 80.925 52.0991 80.46 50.6291 80.46H47.4791V83.49H50.6291Z" fill="white"/>
<path d="M33.9072 85.1701C30.6522 85.1701 28.2522 82.8751 28.2522 79.7701C28.2522 76.6651 30.6522 74.3701 33.9072 74.3701C37.1622 74.3701 39.5622 76.6501 39.5622 79.7701C39.5622 82.8901 37.1622 85.1701 33.9072 85.1701ZM33.9072 83.4601C36.0222 83.4601 37.5972 81.9151 37.5972 79.7701C37.5972 77.6251 36.0222 76.0801 33.9072 76.0801C31.7922 76.0801 30.2172 77.6251 30.2172 79.7701C30.2172 81.9151 31.7922 83.4601 33.9072 83.4601Z" fill="white"/>
<path d="M16.313 85.02V74.52H18.263V83.37H23.753V85.02H16.313Z" fill="white"/>
<path d="M7.99617 82.9201V79.6501H9.84117V83.8351C8.74617 84.7201 7.21617 85.1701 5.73117 85.1701C2.47617 85.1701 0.0761719 82.9051 0.0761719 79.7701C0.0761719 76.6351 2.47617 74.3701 5.76117 74.3701C7.51617 74.3701 8.98617 74.9551 9.97617 76.0801L8.74617 77.2801C7.92117 76.4551 6.97617 76.0801 5.85117 76.0801C3.61617 76.0801 2.04117 77.5951 2.04117 79.7701C2.04117 81.9001 3.61617 83.4601 5.83617 83.4601C6.58617 83.4601 7.32117 83.3101 7.99617 82.9201Z" fill="white"/>
</svg>
